<svg xmlns="http://www.w3.org/2000/svg">
  <symbol id="icon-stats-subs" viewBox="0 0 24 24">
    <path d="M21,24H19V18.957A2.96,2.96,0,0,0,16.043,16H7.957A2.96,2.96,0,0,0,5,18.957V24H3V18.957A4.963,4.963,0,0,1,7.957,14h8.086A4.963,4.963,0,0,1,21,18.957Z"/>
    <path d="M12,12a6,6,0,1,1,6-6A6.006,6.006,0,0,1,12,12ZM12,2a4,4,0,1,0,4,4A4,4,0,0,0,12,2Z"/>
  </symbol>
  <symbol id="icon-stats-views" viewBox="0 0 24 24">
    <path d="M23,22H5a3,3,0,0,1-3-3V1A1,1,0,0,0,0,1V19a5.006,5.006,0,0,0,5,5H23a1,1,0,0,0,0-2Z"/>
    <path d="M6,20a1,1,0,0,0,1-1V12a1,1,0,0,0-2,0v7A1,1,0,0,0,6,20Z"/>
    <path d="M10,10v9a1,1,0,0,0,2,0V10a1,1,0,0,0-2,0Z"/>
    <path d="M15,13v6a1,1,0,0,0,2,0V13a1,1,0,0,0-2,0Z"/>
    <path d="M20,9V19a1,1,0,0,0,2,0V9a1,1,0,0,0-2,0Z"/>
    <path d="M6,9a1,1,0,0,0,.707-.293l3.586-3.586a1.025,1.025,0,0,1,1.414,0l2.172,2.172a3,3,0,0,0,4.242,0l5.586-5.586A1,1,0,0,0,22.293.293L16.707,5.878a1,1,0,0,1-1.414,0L13.121,3.707a3,3,0,0,0-4.242,0L5.293,7.293A1,1,0,0,0,6,9Z"/>
  </symbol>
  <symbol id="icon-stats-hours" viewBox="0 0 24 24">
    <path d="M12,0A12,12,0,1,0,24,12,12.013,12.013,0,0,0,12,0Zm0,22A10,10,0,1,1,22,12,10.011,10.011,0,0,1,12,22Z"/>
    <path d="M12,6a1,1,0,0,0-1,1v4.325L7.629,13.437a1,1,0,0,0,1.062,1.7l3.84-2.4A1,1,0,0,0,13,11.879V7A1,1,0,0,0,12,6Z"/>
  </symbol>
  <symbol id="icon-stats-future" viewBox="0 0 24 24">
    <path d="M22.485,10.975,12,17.267,1.515,10.975A1,1,0,1,0,.486,12.69l11,6.6a1,1,0,0,0,1.03,0l11-6.6a1,1,0,1,0-1.029-1.715Z"/>
    <path d="M22.485,15.543,12,21.834,1.515,15.543A1,1,0,1,0,.486,17.258l11,6.6a1,1,0,0,0,1.03,0l11-6.6a1,1,0,1,0-1.029-1.715Z"/>
    <path d="M12,14.773a2.976,2.976,0,0,1-1.531-.425L.485,8.357a1,1,0,0,1,0-1.714L10.469.652a2.973,2.973,0,0,1,3.062,0l9.984,5.991a1,1,0,0,1,0,1.714l-9.984,5.991A2.976,2.976,0,0,1,12,14.773ZM2.944,7.5,11.5,12.633a.974.974,0,0,0,1,0L21.056,7.5,12.5,2.367a.974.974,0,0,0-1,0h0Z"/>
  </symbol>
  <symbol id="icon-news" viewBox="0 0 24 24">
    <path d="m19,0h-9c-2.757,0-5,2.243-5,5v1h-.5c-2.481,0-4.5,2.019-4.5,4.5v10c0,1.929,1.569,3.499,3.499,3.5h15.501c2.757,0,5-2.243,5-5V5c0-2.757-2.243-5-5-5ZM5,20.5c0,.827-.673,1.5-1.5,1.5s-1.5-.673-1.5-1.5v-10c0-1.378,1.122-2.5,2.5-2.5h.5v12.5Zm17-1.5c0,1.654-1.346,3-3,3H6.662c.216-.455.338-.963.338-1.5V5c0-1.654,1.346-3,3-3h9c1.654,0,3,1.346,3,3v14Zm-2-12c0,.552-.448,1-1,1h-3c-.552,0-1-.448-1-1s.448-1,1-1h3c.552,0,1,.448,1,1Zm0,4c0,.552-.448,1-1,1h-9c-.552,0-1-.448-1-1s.448-1,1-1h9c.552,0,1,.448,1,1Zm0,4c0,.552-.448,1-1,1h-9c-.552,0-1-.448-1-1s.448-1,1-1h9c.552,0,1,.448,1,1Zm0,4c0,.552-.448,1-1,1h-9c-.552,0-1-.448-1-1s.448-1,1-1h9c.552,0,1,.448,1,1ZM9,7v-2c0-.552.448-1,1-1h2c.552,0,1,.448,1,1v2c0,.552-.448,1-1,1h-2c-.552,0-1-.448-1-1Z"/>
  </symbol>
  <symbol id="icon-warning" viewBox="0 0 24 24">
    <path d="M11,13V7c0-.55,.45-1,1-1s1,.45,1,1v6c0,.55-.45,1-1,1s-1-.45-1-1Zm1,2c-.83,0-1.5,.67-1.5,1.5s.67,1.5,1.5,1.5,1.5-.67,1.5-1.5-.67-1.5-1.5-1.5Zm11.58,4.88c-.7,1.35-2.17,2.12-4.01,2.12H4.44c-1.85,0-3.31-.77-4.01-2.12-.71-1.36-.51-3.1,.5-4.56L8.97,2.6c.71-1.02,1.83-1.6,3.03-1.6s2.32,.58,3,1.57l8.08,12.77c1.01,1.46,1.2,3.19,.49,4.54Zm-2.15-3.42s-.02-.02-.02-.04L13.34,3.67c-.29-.41-.79-.67-1.34-.67s-1.05,.26-1.36,.71L2.59,16.42c-.62,.88-.76,1.84-.4,2.53,.35,.68,1.15,1.05,2.24,1.05h15.12c1.09,0,1.89-.37,2.24-1.05,.36-.69,.22-1.65-.37-2.49Z"/>
  </symbol>
  <symbol id="icon-audio" viewBox="0 0 24 24">
    <path d="m23.227,11.026c-.536-.131-1.075.209-1.2.747l-.848,3.638-1.469-11.178c-.089-.715-.684-1.233-1.414-1.233h-.004c-.732.003-1.326.524-1.41,1.235l-1.682,13.51L13.416,1.286c-.079-.728-.675-1.255-1.416-1.255s-1.337.527-1.416,1.256l-1.784,16.458-1.681-13.504c-.085-.717-.683-1.238-1.415-1.241-.73,0-1.325.519-1.413,1.228l-1.47,11.184-.848-3.638c-.125-.538-.663-.87-1.2-.747-.538.125-.873.662-.747,1.2l1.559,6.693c.157.678.764,1.126,1.464,1.093.703-.035,1.256-.54,1.346-1.228l1.294-9.845,1.72,13.812c.086.729.687,1.257,1.43,1.257h.008c.747-.004,1.347-.538,1.425-1.27l1.729-15.957,1.729,15.956c.078.732.678,1.267,1.425,1.271h.008c.743,0,1.344-.527,1.429-1.249l1.721-13.819,1.294,9.845c.09.688.643,1.192,1.346,1.228.695.035,1.308-.415,1.464-1.093l1.559-6.693c.126-.538-.209-1.075-.747-1.2Z"/>
  </symbol>
  <symbol id="icon-audio-playing" viewBox="0 0 24 24">
    <path d="m14.914,24.021l-2.914-14.085-2.914,14.085-3.095-12.534-2.299,9.146L.809,13h-.809v-2h2.191l1.116,2.957L6.009,3.213l2.905,11.767L12,.064l3.086,14.915,2.905-11.767,2.701,10.744,1.116-2.957h2.191v2h-.809l-2.884,7.633-2.299-9.146-3.095,12.534Z"/>
  </symbol>
</svg>